<mxfile host="app.diagrams.net" modified="2023-10-12T19:06:36.960Z" agent="Mozilla/5.0 (Windows NT 10.0; Win64; x64) AppleWebKit/537.36 (KHTML, like Gecko) Chrome/117.0.0.0 Safari/537.36" etag="TH2KhH_LPeXSXgcXPzqj" version="22.0.4" type="device">
  <diagram name="Сторінка-1" id="SJtXVQ6FmcvDw9WWks-Q">
    <mxGraphModel dx="1050" dy="1719" grid="1" gridSize="10" guides="1" tooltips="1" connect="1" arrows="1" fold="1" page="1" pageScale="1" pageWidth="827" pageHeight="1169" math="0" shadow="0">
      <root>
        <mxCell id="0" />
        <mxCell id="1" parent="0" />
        <mxCell id="xA2Xlw5TdVz1zvSwqhGt-1" value="&lt;font style=&quot;font-size: 16px;&quot;&gt;Car&lt;/font&gt;" style="rounded=0;whiteSpace=wrap;html=1;fillColor=#fa6800;fontColor=#000000;strokeColor=#C73500;" parent="1" vertex="1">
          <mxGeometry x="330" y="420" width="120" height="60" as="geometry" />
        </mxCell>
        <mxCell id="xA2Xlw5TdVz1zvSwqhGt-2" value="&lt;font style=&quot;font-size: 16px;&quot;&gt;Branch&lt;/font&gt;" style="rounded=0;whiteSpace=wrap;html=1;fillColor=#fa6800;fontColor=#000000;strokeColor=#C73500;" parent="1" vertex="1">
          <mxGeometry x="670" y="40" width="120" height="60" as="geometry" />
        </mxCell>
        <mxCell id="xA2Xlw5TdVz1zvSwqhGt-3" value="&lt;font style=&quot;font-size: 16px;&quot;&gt;Orders&lt;/font&gt;" style="rounded=0;whiteSpace=wrap;html=1;fillColor=#fa6800;fontColor=#000000;strokeColor=#C73500;" parent="1" vertex="1">
          <mxGeometry x="520" y="200" width="120" height="60" as="geometry" />
        </mxCell>
        <mxCell id="xA2Xlw5TdVz1zvSwqhGt-4" value="&lt;span style=&quot;font-size: 16px;&quot;&gt;Employee&lt;/span&gt;" style="rounded=0;whiteSpace=wrap;html=1;fillColor=#fa6800;fontColor=#000000;strokeColor=#C73500;" parent="1" vertex="1">
          <mxGeometry x="370" y="40" width="120" height="60" as="geometry" />
        </mxCell>
        <mxCell id="xA2Xlw5TdVz1zvSwqhGt-5" value="&lt;font style=&quot;font-size: 16px;&quot;&gt;Customer&lt;/font&gt;" style="rounded=0;whiteSpace=wrap;html=1;fillColor=#fa6800;strokeColor=#C73500;fontColor=#000000;" parent="1" vertex="1">
          <mxGeometry x="660" y="510" width="120" height="60" as="geometry" />
        </mxCell>
        <mxCell id="xA2Xlw5TdVz1zvSwqhGt-6" value="&lt;font style=&quot;font-size: 16px;&quot;&gt;Brand&lt;/font&gt;" style="ellipse;whiteSpace=wrap;html=1;fillColor=#d5e8d4;strokeColor=#82b366;" parent="1" vertex="1">
          <mxGeometry x="320" y="270" width="120" height="60" as="geometry" />
        </mxCell>
        <mxCell id="vLWXg7ogVB09wTGL7GSh-17" style="edgeStyle=orthogonalEdgeStyle;rounded=0;orthogonalLoop=1;jettySize=auto;html=1;entryX=0.5;entryY=1;entryDx=0;entryDy=0;fillColor=#dae8fc;strokeColor=#6c8ebf;" parent="1" source="xA2Xlw5TdVz1zvSwqhGt-8" target="xA2Xlw5TdVz1zvSwqhGt-1" edge="1">
          <mxGeometry relative="1" as="geometry" />
        </mxCell>
        <mxCell id="xA2Xlw5TdVz1zvSwqhGt-8" value="VIN Code" style="ellipse;whiteSpace=wrap;html=1;fillColor=#d5e8d4;strokeColor=#82b366;" parent="1" vertex="1">
          <mxGeometry x="200" y="510" width="120" height="60" as="geometry" />
        </mxCell>
        <mxCell id="vLWXg7ogVB09wTGL7GSh-20" style="edgeStyle=orthogonalEdgeStyle;rounded=0;orthogonalLoop=1;jettySize=auto;html=1;entryX=0;entryY=0.25;entryDx=0;entryDy=0;fillColor=#dae8fc;strokeColor=#6c8ebf;" parent="1" source="xA2Xlw5TdVz1zvSwqhGt-9" target="xA2Xlw5TdVz1zvSwqhGt-1" edge="1">
          <mxGeometry relative="1" as="geometry" />
        </mxCell>
        <mxCell id="xA2Xlw5TdVz1zvSwqhGt-9" value="&lt;font style=&quot;font-size: 16px;&quot;&gt;Year&lt;/font&gt;" style="ellipse;whiteSpace=wrap;html=1;fillColor=#d5e8d4;strokeColor=#82b366;" parent="1" vertex="1">
          <mxGeometry x="110" y="280" width="120" height="60" as="geometry" />
        </mxCell>
        <mxCell id="vLWXg7ogVB09wTGL7GSh-21" style="edgeStyle=orthogonalEdgeStyle;rounded=0;orthogonalLoop=1;jettySize=auto;html=1;entryX=0;entryY=0.5;entryDx=0;entryDy=0;fillColor=#dae8fc;strokeColor=#6c8ebf;" parent="1" source="xA2Xlw5TdVz1zvSwqhGt-10" target="xA2Xlw5TdVz1zvSwqhGt-1" edge="1">
          <mxGeometry relative="1" as="geometry" />
        </mxCell>
        <mxCell id="xA2Xlw5TdVz1zvSwqhGt-10" value="&lt;font style=&quot;font-size: 16px;&quot;&gt;Price&lt;/font&gt;" style="ellipse;whiteSpace=wrap;html=1;fillColor=#d5e8d4;strokeColor=#82b366;" parent="1" vertex="1">
          <mxGeometry x="80" y="340" width="120" height="60" as="geometry" />
        </mxCell>
        <mxCell id="vLWXg7ogVB09wTGL7GSh-22" style="edgeStyle=orthogonalEdgeStyle;rounded=0;orthogonalLoop=1;jettySize=auto;html=1;entryX=0;entryY=0.75;entryDx=0;entryDy=0;fillColor=#dae8fc;strokeColor=#6c8ebf;" parent="1" source="xA2Xlw5TdVz1zvSwqhGt-11" target="xA2Xlw5TdVz1zvSwqhGt-1" edge="1">
          <mxGeometry relative="1" as="geometry" />
        </mxCell>
        <mxCell id="xA2Xlw5TdVz1zvSwqhGt-11" value="&lt;font style=&quot;font-size: 16px;&quot;&gt;Body Type&lt;/font&gt;" style="ellipse;whiteSpace=wrap;html=1;fillColor=#d5e8d4;strokeColor=#82b366;" parent="1" vertex="1">
          <mxGeometry x="80" y="400" width="120" height="60" as="geometry" />
        </mxCell>
        <mxCell id="vLWXg7ogVB09wTGL7GSh-19" style="edgeStyle=orthogonalEdgeStyle;rounded=0;orthogonalLoop=1;jettySize=auto;html=1;entryX=0;entryY=0;entryDx=0;entryDy=0;fillColor=#dae8fc;strokeColor=#6c8ebf;" parent="1" source="xA2Xlw5TdVz1zvSwqhGt-12" target="xA2Xlw5TdVz1zvSwqhGt-1" edge="1">
          <mxGeometry relative="1" as="geometry" />
        </mxCell>
        <mxCell id="xA2Xlw5TdVz1zvSwqhGt-12" value="&lt;span style=&quot;font-size: 16px;&quot;&gt;Model&lt;/span&gt;" style="ellipse;whiteSpace=wrap;html=1;fillColor=#d5e8d4;strokeColor=#82b366;" parent="1" vertex="1">
          <mxGeometry x="210" y="250" width="120" height="60" as="geometry" />
        </mxCell>
        <mxCell id="vLWXg7ogVB09wTGL7GSh-23" style="edgeStyle=orthogonalEdgeStyle;rounded=0;orthogonalLoop=1;jettySize=auto;html=1;entryX=0.25;entryY=1;entryDx=0;entryDy=0;fillColor=#dae8fc;strokeColor=#6c8ebf;" parent="1" source="xA2Xlw5TdVz1zvSwqhGt-13" target="xA2Xlw5TdVz1zvSwqhGt-1" edge="1">
          <mxGeometry relative="1" as="geometry" />
        </mxCell>
        <mxCell id="xA2Xlw5TdVz1zvSwqhGt-13" value="Engine Type" style="ellipse;whiteSpace=wrap;html=1;fillColor=#d5e8d4;strokeColor=#82b366;" parent="1" vertex="1">
          <mxGeometry x="110" y="460" width="120" height="60" as="geometry" />
        </mxCell>
        <mxCell id="EOW3ffoUdWi_FFbtDDDX-25" style="edgeStyle=orthogonalEdgeStyle;rounded=0;orthogonalLoop=1;jettySize=auto;html=1;entryX=0;entryY=0.5;entryDx=0;entryDy=0;fillColor=#dae8fc;strokeColor=#6c8ebf;" parent="1" source="xA2Xlw5TdVz1zvSwqhGt-16" target="xA2Xlw5TdVz1zvSwqhGt-4" edge="1">
          <mxGeometry relative="1" as="geometry" />
        </mxCell>
        <mxCell id="xA2Xlw5TdVz1zvSwqhGt-16" value="first_name" style="ellipse;whiteSpace=wrap;html=1;fillColor=#d5e8d4;strokeColor=#82b366;" parent="1" vertex="1">
          <mxGeometry x="90" y="-50" width="120" height="60" as="geometry" />
        </mxCell>
        <mxCell id="EOW3ffoUdWi_FFbtDDDX-22" style="edgeStyle=orthogonalEdgeStyle;rounded=0;orthogonalLoop=1;jettySize=auto;html=1;exitX=1;exitY=0;exitDx=0;exitDy=0;entryX=0;entryY=0.5;entryDx=0;entryDy=0;fillColor=#dae8fc;strokeColor=#6c8ebf;" parent="1" source="xA2Xlw5TdVz1zvSwqhGt-17" target="xA2Xlw5TdVz1zvSwqhGt-4" edge="1">
          <mxGeometry relative="1" as="geometry" />
        </mxCell>
        <mxCell id="xA2Xlw5TdVz1zvSwqhGt-17" value="Contacts" style="ellipse;whiteSpace=wrap;html=1;fillColor=#d5e8d4;strokeColor=#82b366;" parent="1" vertex="1">
          <mxGeometry x="60" y="140" width="120" height="60" as="geometry" />
        </mxCell>
        <mxCell id="EOW3ffoUdWi_FFbtDDDX-24" style="edgeStyle=orthogonalEdgeStyle;rounded=0;orthogonalLoop=1;jettySize=auto;html=1;fillColor=#dae8fc;strokeColor=#6c8ebf;" parent="1" source="xA2Xlw5TdVz1zvSwqhGt-18" edge="1">
          <mxGeometry relative="1" as="geometry">
            <mxPoint x="380" y="50" as="targetPoint" />
          </mxGeometry>
        </mxCell>
        <mxCell id="xA2Xlw5TdVz1zvSwqhGt-18" value="last_name" style="ellipse;whiteSpace=wrap;html=1;fillColor=#d5e8d4;strokeColor=#82b366;" parent="1" vertex="1">
          <mxGeometry x="50" y="10" width="120" height="60" as="geometry" />
        </mxCell>
        <mxCell id="xA2Xlw5TdVz1zvSwqhGt-20" value="&lt;span style=&quot;font-size: 16px;&quot;&gt;City&lt;/span&gt;" style="ellipse;whiteSpace=wrap;html=1;fillColor=#d5e8d4;strokeColor=#82b366;" parent="1" vertex="1">
          <mxGeometry x="810" y="90" width="120" height="60" as="geometry" />
        </mxCell>
        <mxCell id="vLWXg7ogVB09wTGL7GSh-39" style="edgeStyle=orthogonalEdgeStyle;rounded=0;orthogonalLoop=1;jettySize=auto;html=1;entryX=0.75;entryY=0;entryDx=0;entryDy=0;fillColor=#dae8fc;strokeColor=#6c8ebf;" parent="1" source="xA2Xlw5TdVz1zvSwqhGt-21" target="xA2Xlw5TdVz1zvSwqhGt-2" edge="1">
          <mxGeometry relative="1" as="geometry" />
        </mxCell>
        <mxCell id="xA2Xlw5TdVz1zvSwqhGt-21" value="&lt;span style=&quot;font-size: 14px;&quot;&gt;Branch_id&lt;/span&gt;" style="ellipse;whiteSpace=wrap;html=1;fillColor=#d5e8d4;strokeColor=#82b366;" parent="1" vertex="1">
          <mxGeometry x="670" y="-70" width="120" height="60" as="geometry" />
        </mxCell>
        <mxCell id="xA2Xlw5TdVz1zvSwqhGt-22" value="Order_Date" style="ellipse;whiteSpace=wrap;html=1;fillColor=#d5e8d4;strokeColor=#82b366;" parent="1" vertex="1">
          <mxGeometry x="630" y="120" width="120" height="60" as="geometry" />
        </mxCell>
        <mxCell id="vLWXg7ogVB09wTGL7GSh-35" style="edgeStyle=orthogonalEdgeStyle;rounded=0;orthogonalLoop=1;jettySize=auto;html=1;entryX=1;entryY=0.75;entryDx=0;entryDy=0;fillColor=#dae8fc;strokeColor=#6c8ebf;" parent="1" source="xA2Xlw5TdVz1zvSwqhGt-23" target="xA2Xlw5TdVz1zvSwqhGt-3" edge="1">
          <mxGeometry relative="1" as="geometry" />
        </mxCell>
        <mxCell id="xA2Xlw5TdVz1zvSwqhGt-23" value="Selected_Car" style="ellipse;whiteSpace=wrap;html=1;fillColor=#d5e8d4;strokeColor=#82b366;" parent="1" vertex="1">
          <mxGeometry x="790" y="200" width="120" height="60" as="geometry" />
        </mxCell>
        <mxCell id="xA2Xlw5TdVz1zvSwqhGt-24" value="Order_id" style="ellipse;whiteSpace=wrap;html=1;fillColor=#d5e8d4;strokeColor=#82b366;" parent="1" vertex="1">
          <mxGeometry x="707" y="340" width="120" height="60" as="geometry" />
        </mxCell>
        <mxCell id="xA2Xlw5TdVz1zvSwqhGt-25" value="Order_status" style="ellipse;whiteSpace=wrap;html=1;fillColor=#d5e8d4;strokeColor=#82b366;" parent="1" vertex="1">
          <mxGeometry x="590" y="330" width="120" height="60" as="geometry" />
        </mxCell>
        <mxCell id="vLWXg7ogVB09wTGL7GSh-34" style="edgeStyle=orthogonalEdgeStyle;rounded=0;orthogonalLoop=1;jettySize=auto;html=1;exitX=0;exitY=0.5;exitDx=0;exitDy=0;fillColor=#dae8fc;strokeColor=#6c8ebf;" parent="1" source="xA2Xlw5TdVz1zvSwqhGt-26" target="xA2Xlw5TdVz1zvSwqhGt-3" edge="1">
          <mxGeometry relative="1" as="geometry" />
        </mxCell>
        <mxCell id="xA2Xlw5TdVz1zvSwqhGt-26" value="&lt;br&gt;Customer_id&lt;br&gt;" style="ellipse;whiteSpace=wrap;html=1;fillColor=#d5e8d4;strokeColor=#82b366;" parent="1" vertex="1">
          <mxGeometry x="750" y="150" width="120" height="60" as="geometry" />
        </mxCell>
        <mxCell id="vLWXg7ogVB09wTGL7GSh-12" style="edgeStyle=orthogonalEdgeStyle;rounded=0;orthogonalLoop=1;jettySize=auto;html=1;entryX=0;entryY=0.75;entryDx=0;entryDy=0;fillColor=#dae8fc;strokeColor=#6c8ebf;" parent="1" source="xA2Xlw5TdVz1zvSwqhGt-27" target="xA2Xlw5TdVz1zvSwqhGt-5" edge="1">
          <mxGeometry relative="1" as="geometry" />
        </mxCell>
        <mxCell id="xA2Xlw5TdVz1zvSwqhGt-27" value="Email" style="ellipse;whiteSpace=wrap;html=1;fillColor=#d5e8d4;strokeColor=#82b366;" parent="1" vertex="1">
          <mxGeometry x="510" y="610" width="120" height="60" as="geometry" />
        </mxCell>
        <mxCell id="vLWXg7ogVB09wTGL7GSh-11" style="edgeStyle=orthogonalEdgeStyle;rounded=0;orthogonalLoop=1;jettySize=auto;html=1;entryX=1;entryY=0;entryDx=0;entryDy=0;fillColor=#dae8fc;strokeColor=#6c8ebf;" parent="1" source="xA2Xlw5TdVz1zvSwqhGt-28" target="xA2Xlw5TdVz1zvSwqhGt-5" edge="1">
          <mxGeometry relative="1" as="geometry" />
        </mxCell>
        <mxCell id="xA2Xlw5TdVz1zvSwqhGt-28" value="First&amp;nbsp; Name" style="ellipse;whiteSpace=wrap;html=1;fillColor=#d5e8d4;strokeColor=#82b366;" parent="1" vertex="1">
          <mxGeometry x="827" y="460" width="120" height="60" as="geometry" />
        </mxCell>
        <mxCell id="vLWXg7ogVB09wTGL7GSh-10" style="edgeStyle=orthogonalEdgeStyle;rounded=0;orthogonalLoop=1;jettySize=auto;html=1;entryX=1;entryY=0.5;entryDx=0;entryDy=0;fillColor=#dae8fc;strokeColor=#6c8ebf;" parent="1" source="xA2Xlw5TdVz1zvSwqhGt-29" target="xA2Xlw5TdVz1zvSwqhGt-5" edge="1">
          <mxGeometry relative="1" as="geometry" />
        </mxCell>
        <mxCell id="xA2Xlw5TdVz1zvSwqhGt-29" value="Last Name" style="ellipse;whiteSpace=wrap;html=1;fillColor=#d5e8d4;strokeColor=#82b366;" parent="1" vertex="1">
          <mxGeometry x="850" y="520" width="120" height="60" as="geometry" />
        </mxCell>
        <mxCell id="vLWXg7ogVB09wTGL7GSh-7" style="edgeStyle=orthogonalEdgeStyle;rounded=0;orthogonalLoop=1;jettySize=auto;html=1;exitX=0.5;exitY=0;exitDx=0;exitDy=0;fillColor=#dae8fc;strokeColor=#6c8ebf;" parent="1" source="xA2Xlw5TdVz1zvSwqhGt-30" target="xA2Xlw5TdVz1zvSwqhGt-5" edge="1">
          <mxGeometry relative="1" as="geometry" />
        </mxCell>
        <mxCell id="xA2Xlw5TdVz1zvSwqhGt-30" value="Customer_id" style="ellipse;whiteSpace=wrap;html=1;fillColor=#d5e8d4;strokeColor=#82b366;" parent="1" vertex="1">
          <mxGeometry x="630" y="640" width="120" height="60" as="geometry" />
        </mxCell>
        <mxCell id="xA2Xlw5TdVz1zvSwqhGt-31" value="Phone Number" style="ellipse;whiteSpace=wrap;html=1;fillColor=#d5e8d4;strokeColor=#82b366;" parent="1" vertex="1">
          <mxGeometry x="750" y="640" width="120" height="60" as="geometry" />
        </mxCell>
        <mxCell id="vLWXg7ogVB09wTGL7GSh-9" style="edgeStyle=orthogonalEdgeStyle;rounded=0;orthogonalLoop=1;jettySize=auto;html=1;exitX=0;exitY=0;exitDx=0;exitDy=0;fillColor=#dae8fc;strokeColor=#6c8ebf;" parent="1" source="xA2Xlw5TdVz1zvSwqhGt-32" edge="1">
          <mxGeometry relative="1" as="geometry">
            <mxPoint x="790" y="560" as="targetPoint" />
          </mxGeometry>
        </mxCell>
        <mxCell id="xA2Xlw5TdVz1zvSwqhGt-32" value="Adress" style="ellipse;whiteSpace=wrap;html=1;fillColor=#d5e8d4;strokeColor=#82b366;" parent="1" vertex="1">
          <mxGeometry x="850" y="584.5" width="120" height="65" as="geometry" />
        </mxCell>
        <mxCell id="aP8zljrskZ-BRKJ0sRKf-2" style="edgeStyle=orthogonalEdgeStyle;rounded=0;orthogonalLoop=1;jettySize=auto;html=1;entryX=1;entryY=0.5;entryDx=0;entryDy=0;endArrow=ERzeroToMany;endFill=0;fillColor=#dae8fc;strokeColor=#6c8ebf;" parent="1" source="vLWXg7ogVB09wTGL7GSh-1" target="xA2Xlw5TdVz1zvSwqhGt-4" edge="1">
          <mxGeometry relative="1" as="geometry" />
        </mxCell>
        <mxCell id="vLWXg7ogVB09wTGL7GSh-1" value="Works_for" style="rhombus;whiteSpace=wrap;html=1;fillColor=#dae8fc;strokeColor=#6c8ebf;" parent="1" vertex="1">
          <mxGeometry x="540" y="40" width="80" height="70" as="geometry" />
        </mxCell>
        <mxCell id="vLWXg7ogVB09wTGL7GSh-2" value="Manages" style="rhombus;whiteSpace=wrap;html=1;fillColor=#dae8fc;strokeColor=#6c8ebf;" parent="1" vertex="1">
          <mxGeometry x="400" y="-90" width="80" height="70" as="geometry" />
        </mxCell>
        <mxCell id="vLWXg7ogVB09wTGL7GSh-41" style="edgeStyle=orthogonalEdgeStyle;rounded=0;orthogonalLoop=1;jettySize=auto;html=1;entryX=0.5;entryY=0;entryDx=0;entryDy=0;endArrow=ERzeroToMany;endFill=0;fillColor=#dae8fc;strokeColor=#6c8ebf;" parent="1" source="vLWXg7ogVB09wTGL7GSh-3" target="xA2Xlw5TdVz1zvSwqhGt-3" edge="1">
          <mxGeometry relative="1" as="geometry" />
        </mxCell>
        <mxCell id="vLWXg7ogVB09wTGL7GSh-3" value="Places" style="rhombus;whiteSpace=wrap;html=1;fillColor=#dae8fc;strokeColor=#6c8ebf;" parent="1" vertex="1">
          <mxGeometry x="400" y="130" width="80" height="60" as="geometry" />
        </mxCell>
        <mxCell id="vLWXg7ogVB09wTGL7GSh-16" style="edgeStyle=orthogonalEdgeStyle;rounded=0;orthogonalLoop=1;jettySize=auto;html=1;entryX=0.25;entryY=1;entryDx=0;entryDy=0;endArrow=ERzeroToMany;endFill=0;fillColor=#dae8fc;strokeColor=#6c8ebf;" parent="1" source="vLWXg7ogVB09wTGL7GSh-4" target="xA2Xlw5TdVz1zvSwqhGt-3" edge="1">
          <mxGeometry relative="1" as="geometry" />
        </mxCell>
        <mxCell id="vLWXg7ogVB09wTGL7GSh-4" value="sells" style="rhombus;whiteSpace=wrap;html=1;fillColor=#dae8fc;strokeColor=#6c8ebf;" parent="1" vertex="1">
          <mxGeometry x="460" y="360" width="80" height="55" as="geometry" />
        </mxCell>
        <mxCell id="vLWXg7ogVB09wTGL7GSh-14" style="edgeStyle=orthogonalEdgeStyle;rounded=0;orthogonalLoop=1;jettySize=auto;html=1;entryX=0.5;entryY=1;entryDx=0;entryDy=0;endArrow=ERoneToMany;endFill=0;fillColor=#dae8fc;strokeColor=#6c8ebf;" parent="1" source="vLWXg7ogVB09wTGL7GSh-5" target="xA2Xlw5TdVz1zvSwqhGt-3" edge="1">
          <mxGeometry relative="1" as="geometry" />
        </mxCell>
        <mxCell id="vLWXg7ogVB09wTGL7GSh-5" value="buys" style="rhombus;whiteSpace=wrap;html=1;fillColor=#dae8fc;strokeColor=#6c8ebf;" parent="1" vertex="1">
          <mxGeometry x="670" y="400" width="80" height="60" as="geometry" />
        </mxCell>
        <mxCell id="vLWXg7ogVB09wTGL7GSh-8" style="edgeStyle=orthogonalEdgeStyle;rounded=0;orthogonalLoop=1;jettySize=auto;html=1;entryX=0.583;entryY=1.077;entryDx=0;entryDy=0;entryPerimeter=0;fillColor=#dae8fc;strokeColor=#6c8ebf;" parent="1" source="xA2Xlw5TdVz1zvSwqhGt-31" target="xA2Xlw5TdVz1zvSwqhGt-5" edge="1">
          <mxGeometry relative="1" as="geometry" />
        </mxCell>
        <mxCell id="vLWXg7ogVB09wTGL7GSh-13" style="edgeStyle=orthogonalEdgeStyle;rounded=0;orthogonalLoop=1;jettySize=auto;html=1;entryX=0.41;entryY=-0.07;entryDx=0;entryDy=0;entryPerimeter=0;endArrow=ERmandOne;endFill=0;fillColor=#dae8fc;strokeColor=#6c8ebf;" parent="1" source="vLWXg7ogVB09wTGL7GSh-5" target="xA2Xlw5TdVz1zvSwqhGt-5" edge="1">
          <mxGeometry relative="1" as="geometry" />
        </mxCell>
        <mxCell id="vLWXg7ogVB09wTGL7GSh-15" style="edgeStyle=orthogonalEdgeStyle;rounded=0;orthogonalLoop=1;jettySize=auto;html=1;entryX=0.433;entryY=0.003;entryDx=0;entryDy=0;entryPerimeter=0;endArrow=ERmandOne;endFill=0;fillColor=#dae8fc;strokeColor=#6c8ebf;" parent="1" source="vLWXg7ogVB09wTGL7GSh-4" target="xA2Xlw5TdVz1zvSwqhGt-1" edge="1">
          <mxGeometry relative="1" as="geometry" />
        </mxCell>
        <mxCell id="vLWXg7ogVB09wTGL7GSh-18" style="edgeStyle=orthogonalEdgeStyle;rounded=0;orthogonalLoop=1;jettySize=auto;html=1;entryX=0.187;entryY=0.003;entryDx=0;entryDy=0;entryPerimeter=0;fillColor=#dae8fc;strokeColor=#6c8ebf;" parent="1" source="xA2Xlw5TdVz1zvSwqhGt-6" target="xA2Xlw5TdVz1zvSwqhGt-1" edge="1">
          <mxGeometry relative="1" as="geometry" />
        </mxCell>
        <mxCell id="vLWXg7ogVB09wTGL7GSh-24" style="edgeStyle=orthogonalEdgeStyle;rounded=0;orthogonalLoop=1;jettySize=auto;html=1;entryX=0.007;entryY=0.63;entryDx=0;entryDy=0;entryPerimeter=0;endArrow=ERzeroToOne;endFill=0;fillColor=#dae8fc;strokeColor=#6c8ebf;" parent="1" source="vLWXg7ogVB09wTGL7GSh-1" target="xA2Xlw5TdVz1zvSwqhGt-2" edge="1">
          <mxGeometry relative="1" as="geometry" />
        </mxCell>
        <mxCell id="vLWXg7ogVB09wTGL7GSh-26" style="edgeStyle=orthogonalEdgeStyle;rounded=0;orthogonalLoop=1;jettySize=auto;html=1;entryX=0.937;entryY=-0.037;entryDx=0;entryDy=0;entryPerimeter=0;endArrow=ERzeroToOne;endFill=0;fillColor=#dae8fc;strokeColor=#6c8ebf;" parent="1" source="vLWXg7ogVB09wTGL7GSh-2" target="xA2Xlw5TdVz1zvSwqhGt-4" edge="1">
          <mxGeometry relative="1" as="geometry" />
        </mxCell>
        <mxCell id="vLWXg7ogVB09wTGL7GSh-27" style="edgeStyle=orthogonalEdgeStyle;rounded=0;orthogonalLoop=1;jettySize=auto;html=1;entryX=0.097;entryY=-0.023;entryDx=0;entryDy=0;entryPerimeter=0;endArrow=ERzeroToMany;endFill=0;fillColor=#dae8fc;strokeColor=#6c8ebf;" parent="1" source="vLWXg7ogVB09wTGL7GSh-2" target="xA2Xlw5TdVz1zvSwqhGt-4" edge="1">
          <mxGeometry relative="1" as="geometry" />
        </mxCell>
        <mxCell id="vLWXg7ogVB09wTGL7GSh-33" style="edgeStyle=orthogonalEdgeStyle;rounded=0;orthogonalLoop=1;jettySize=auto;html=1;exitX=0;exitY=1;exitDx=0;exitDy=0;entryX=0.897;entryY=-0.023;entryDx=0;entryDy=0;entryPerimeter=0;fillColor=#dae8fc;strokeColor=#6c8ebf;" parent="1" source="xA2Xlw5TdVz1zvSwqhGt-22" target="xA2Xlw5TdVz1zvSwqhGt-3" edge="1">
          <mxGeometry relative="1" as="geometry" />
        </mxCell>
        <mxCell id="vLWXg7ogVB09wTGL7GSh-37" style="edgeStyle=orthogonalEdgeStyle;rounded=0;orthogonalLoop=1;jettySize=auto;html=1;exitX=0;exitY=0.5;exitDx=0;exitDy=0;entryX=0.683;entryY=1.057;entryDx=0;entryDy=0;entryPerimeter=0;fillColor=#dae8fc;strokeColor=#6c8ebf;" parent="1" source="xA2Xlw5TdVz1zvSwqhGt-25" target="xA2Xlw5TdVz1zvSwqhGt-3" edge="1">
          <mxGeometry relative="1" as="geometry" />
        </mxCell>
        <mxCell id="vLWXg7ogVB09wTGL7GSh-40" style="edgeStyle=orthogonalEdgeStyle;rounded=0;orthogonalLoop=1;jettySize=auto;html=1;entryX=0.673;entryY=0.99;entryDx=0;entryDy=0;entryPerimeter=0;fillColor=#dae8fc;strokeColor=#6c8ebf;" parent="1" source="xA2Xlw5TdVz1zvSwqhGt-20" target="xA2Xlw5TdVz1zvSwqhGt-2" edge="1">
          <mxGeometry relative="1" as="geometry" />
        </mxCell>
        <mxCell id="EOW3ffoUdWi_FFbtDDDX-2" value="Color" style="ellipse;whiteSpace=wrap;html=1;fillColor=#d5e8d4;strokeColor=#82b366;" parent="1" vertex="1">
          <mxGeometry x="280" y="570" width="120" height="60" as="geometry" />
        </mxCell>
        <mxCell id="EOW3ffoUdWi_FFbtDDDX-4" style="edgeStyle=orthogonalEdgeStyle;rounded=0;orthogonalLoop=1;jettySize=auto;html=1;entryX=0.853;entryY=1.03;entryDx=0;entryDy=0;entryPerimeter=0;fillColor=#dae8fc;strokeColor=#6c8ebf;" parent="1" source="EOW3ffoUdWi_FFbtDDDX-2" target="xA2Xlw5TdVz1zvSwqhGt-1" edge="1">
          <mxGeometry relative="1" as="geometry" />
        </mxCell>
        <mxCell id="EOW3ffoUdWi_FFbtDDDX-26" style="edgeStyle=orthogonalEdgeStyle;rounded=0;orthogonalLoop=1;jettySize=auto;html=1;exitX=1;exitY=1;exitDx=0;exitDy=0;entryX=0;entryY=0;entryDx=0;entryDy=0;fillColor=#dae8fc;strokeColor=#6c8ebf;" parent="1" source="EOW3ffoUdWi_FFbtDDDX-5" target="xA2Xlw5TdVz1zvSwqhGt-4" edge="1">
          <mxGeometry relative="1" as="geometry" />
        </mxCell>
        <mxCell id="EOW3ffoUdWi_FFbtDDDX-5" value="Position" style="ellipse;whiteSpace=wrap;html=1;fillColor=#d5e8d4;strokeColor=#82b366;" parent="1" vertex="1">
          <mxGeometry x="170" y="-90" width="120" height="60" as="geometry" />
        </mxCell>
        <mxCell id="EOW3ffoUdWi_FFbtDDDX-21" style="edgeStyle=orthogonalEdgeStyle;rounded=0;orthogonalLoop=1;jettySize=auto;html=1;exitX=1;exitY=0;exitDx=0;exitDy=0;entryX=0;entryY=0.75;entryDx=0;entryDy=0;fillColor=#dae8fc;strokeColor=#6c8ebf;" parent="1" source="EOW3ffoUdWi_FFbtDDDX-7" target="xA2Xlw5TdVz1zvSwqhGt-4" edge="1">
          <mxGeometry relative="1" as="geometry" />
        </mxCell>
        <mxCell id="EOW3ffoUdWi_FFbtDDDX-7" value="Rate" style="ellipse;whiteSpace=wrap;html=1;fillColor=#d5e8d4;strokeColor=#82b366;" parent="1" vertex="1">
          <mxGeometry x="170" y="170" width="120" height="60" as="geometry" />
        </mxCell>
        <mxCell id="EOW3ffoUdWi_FFbtDDDX-20" style="edgeStyle=orthogonalEdgeStyle;rounded=0;orthogonalLoop=1;jettySize=auto;html=1;exitX=1;exitY=0;exitDx=0;exitDy=0;entryX=0.25;entryY=1;entryDx=0;entryDy=0;fillColor=#dae8fc;strokeColor=#6c8ebf;" parent="1" source="EOW3ffoUdWi_FFbtDDDX-8" target="xA2Xlw5TdVz1zvSwqhGt-4" edge="1">
          <mxGeometry relative="1" as="geometry" />
        </mxCell>
        <mxCell id="EOW3ffoUdWi_FFbtDDDX-8" value="Branch_id" style="ellipse;whiteSpace=wrap;html=1;fillColor=#d5e8d4;strokeColor=#82b366;" parent="1" vertex="1">
          <mxGeometry x="290" y="180" width="120" height="60" as="geometry" />
        </mxCell>
        <mxCell id="EOW3ffoUdWi_FFbtDDDX-27" style="edgeStyle=orthogonalEdgeStyle;rounded=0;orthogonalLoop=1;jettySize=auto;html=1;entryX=0;entryY=1;entryDx=0;entryDy=0;fillColor=#dae8fc;strokeColor=#6c8ebf;" parent="1" source="EOW3ffoUdWi_FFbtDDDX-9" target="xA2Xlw5TdVz1zvSwqhGt-4" edge="1">
          <mxGeometry relative="1" as="geometry" />
        </mxCell>
        <mxCell id="EOW3ffoUdWi_FFbtDDDX-9" value="Employee_id" style="ellipse;whiteSpace=wrap;html=1;fillColor=#d5e8d4;strokeColor=#82b366;" parent="1" vertex="1">
          <mxGeometry x="330" y="-140" width="120" height="60" as="geometry" />
        </mxCell>
        <mxCell id="EOW3ffoUdWi_FFbtDDDX-12" style="edgeStyle=orthogonalEdgeStyle;rounded=0;orthogonalLoop=1;jettySize=auto;html=1;entryX=1;entryY=0.25;entryDx=0;entryDy=0;fillColor=#dae8fc;strokeColor=#6c8ebf;" parent="1" source="EOW3ffoUdWi_FFbtDDDX-10" target="xA2Xlw5TdVz1zvSwqhGt-2" edge="1">
          <mxGeometry relative="1" as="geometry" />
        </mxCell>
        <mxCell id="EOW3ffoUdWi_FFbtDDDX-10" value="&lt;span style=&quot;font-size: 16px;&quot;&gt;Branch_name&lt;/span&gt;" style="ellipse;whiteSpace=wrap;html=1;fillColor=#d5e8d4;strokeColor=#82b366;" parent="1" vertex="1">
          <mxGeometry x="790" y="-60" width="120" height="60" as="geometry" />
        </mxCell>
        <mxCell id="EOW3ffoUdWi_FFbtDDDX-14" style="edgeStyle=orthogonalEdgeStyle;rounded=0;orthogonalLoop=1;jettySize=auto;html=1;entryX=1;entryY=1;entryDx=0;entryDy=0;fillColor=#dae8fc;strokeColor=#6c8ebf;" parent="1" source="EOW3ffoUdWi_FFbtDDDX-13" target="xA2Xlw5TdVz1zvSwqhGt-3" edge="1">
          <mxGeometry relative="1" as="geometry" />
        </mxCell>
        <mxCell id="EOW3ffoUdWi_FFbtDDDX-13" value="Employee_id" style="ellipse;whiteSpace=wrap;html=1;fillColor=#d5e8d4;strokeColor=#82b366;" parent="1" vertex="1">
          <mxGeometry x="690" y="280" width="120" height="60" as="geometry" />
        </mxCell>
        <mxCell id="EOW3ffoUdWi_FFbtDDDX-15" style="edgeStyle=orthogonalEdgeStyle;rounded=0;orthogonalLoop=1;jettySize=auto;html=1;exitX=0;exitY=0;exitDx=0;exitDy=0;entryX=0.877;entryY=1.043;entryDx=0;entryDy=0;entryPerimeter=0;fillColor=#dae8fc;strokeColor=#6c8ebf;" parent="1" source="xA2Xlw5TdVz1zvSwqhGt-24" target="xA2Xlw5TdVz1zvSwqhGt-3" edge="1">
          <mxGeometry relative="1" as="geometry" />
        </mxCell>
        <mxCell id="EOW3ffoUdWi_FFbtDDDX-18" style="edgeStyle=orthogonalEdgeStyle;rounded=0;orthogonalLoop=1;jettySize=auto;html=1;exitX=1;exitY=0;exitDx=0;exitDy=0;entryX=0;entryY=0.5;entryDx=0;entryDy=0;fillColor=#dae8fc;strokeColor=#6c8ebf;" parent="1" source="EOW3ffoUdWi_FFbtDDDX-16" target="xA2Xlw5TdVz1zvSwqhGt-5" edge="1">
          <mxGeometry relative="1" as="geometry" />
        </mxCell>
        <mxCell id="EOW3ffoUdWi_FFbtDDDX-16" value="Gender" style="ellipse;whiteSpace=wrap;html=1;fillColor=#d5e8d4;strokeColor=#82b366;" parent="1" vertex="1">
          <mxGeometry x="500" y="540" width="120" height="60" as="geometry" />
        </mxCell>
        <mxCell id="EOW3ffoUdWi_FFbtDDDX-19" style="edgeStyle=orthogonalEdgeStyle;rounded=0;orthogonalLoop=1;jettySize=auto;html=1;exitX=1;exitY=0.5;exitDx=0;exitDy=0;entryX=0;entryY=0;entryDx=0;entryDy=0;fillColor=#dae8fc;strokeColor=#6c8ebf;" parent="1" source="EOW3ffoUdWi_FFbtDDDX-17" target="xA2Xlw5TdVz1zvSwqhGt-5" edge="1">
          <mxGeometry relative="1" as="geometry" />
        </mxCell>
        <mxCell id="EOW3ffoUdWi_FFbtDDDX-17" value="birth_date" style="ellipse;whiteSpace=wrap;html=1;fillColor=#d5e8d4;strokeColor=#82b366;" parent="1" vertex="1">
          <mxGeometry x="500" y="470" width="120" height="60" as="geometry" />
        </mxCell>
        <mxCell id="aP8zljrskZ-BRKJ0sRKf-1" style="edgeStyle=orthogonalEdgeStyle;rounded=0;orthogonalLoop=1;jettySize=auto;html=1;entryX=0.587;entryY=1.003;entryDx=0;entryDy=0;entryPerimeter=0;endArrow=ERmandOne;endFill=0;fillColor=#dae8fc;strokeColor=#6c8ebf;" parent="1" source="vLWXg7ogVB09wTGL7GSh-3" target="xA2Xlw5TdVz1zvSwqhGt-4" edge="1">
          <mxGeometry relative="1" as="geometry" />
        </mxCell>
        <mxCell id="RJJfYNmW49-ku6Qb9xGs-3" style="edgeStyle=orthogonalEdgeStyle;rounded=0;orthogonalLoop=1;jettySize=auto;html=1;fillColor=#dae8fc;strokeColor=#6c8ebf;" edge="1" parent="1" source="RJJfYNmW49-ku6Qb9xGs-1" target="xA2Xlw5TdVz1zvSwqhGt-4">
          <mxGeometry relative="1" as="geometry" />
        </mxCell>
        <mxCell id="RJJfYNmW49-ku6Qb9xGs-1" value="user_name" style="ellipse;whiteSpace=wrap;html=1;fillColor=#d5e8d4;strokeColor=#82b366;" vertex="1" parent="1">
          <mxGeometry x="50" y="70" width="120" height="60" as="geometry" />
        </mxCell>
        <mxCell id="RJJfYNmW49-ku6Qb9xGs-4" style="edgeStyle=orthogonalEdgeStyle;rounded=0;orthogonalLoop=1;jettySize=auto;html=1;exitX=1;exitY=1;exitDx=0;exitDy=0;entryX=0;entryY=0.75;entryDx=0;entryDy=0;fillColor=#dae8fc;strokeColor=#6c8ebf;" edge="1" parent="1" source="RJJfYNmW49-ku6Qb9xGs-2" target="xA2Xlw5TdVz1zvSwqhGt-4">
          <mxGeometry relative="1" as="geometry" />
        </mxCell>
        <mxCell id="RJJfYNmW49-ku6Qb9xGs-2" value="Bonus" style="ellipse;whiteSpace=wrap;html=1;fillColor=#d5e8d4;strokeColor=#82b366;" vertex="1" parent="1">
          <mxGeometry x="210" y="-140" width="120" height="60" as="geometry" />
        </mxCell>
        <mxCell id="RJJfYNmW49-ku6Qb9xGs-7" style="edgeStyle=orthogonalEdgeStyle;rounded=0;orthogonalLoop=1;jettySize=auto;html=1;entryX=1;entryY=0.5;entryDx=0;entryDy=0;fillColor=#dae8fc;strokeColor=#6c8ebf;" edge="1" parent="1" source="RJJfYNmW49-ku6Qb9xGs-5" target="xA2Xlw5TdVz1zvSwqhGt-2">
          <mxGeometry relative="1" as="geometry" />
        </mxCell>
        <mxCell id="RJJfYNmW49-ku6Qb9xGs-5" value="&lt;span style=&quot;font-size: 16px;&quot;&gt;street&lt;/span&gt;" style="ellipse;whiteSpace=wrap;html=1;fillColor=#d5e8d4;strokeColor=#82b366;" vertex="1" parent="1">
          <mxGeometry x="890" y="-10" width="120" height="60" as="geometry" />
        </mxCell>
        <mxCell id="RJJfYNmW49-ku6Qb9xGs-8" style="edgeStyle=orthogonalEdgeStyle;rounded=0;orthogonalLoop=1;jettySize=auto;html=1;entryX=1;entryY=0.75;entryDx=0;entryDy=0;fillColor=#dae8fc;strokeColor=#6c8ebf;" edge="1" parent="1" source="RJJfYNmW49-ku6Qb9xGs-6" target="xA2Xlw5TdVz1zvSwqhGt-2">
          <mxGeometry relative="1" as="geometry" />
        </mxCell>
        <mxCell id="RJJfYNmW49-ku6Qb9xGs-6" value="building_number" style="ellipse;whiteSpace=wrap;html=1;fillColor=#d5e8d4;strokeColor=#82b366;" vertex="1" parent="1">
          <mxGeometry x="920" y="50" width="120" height="60" as="geometry" />
        </mxCell>
        <mxCell id="RJJfYNmW49-ku6Qb9xGs-10" style="edgeStyle=orthogonalEdgeStyle;rounded=0;orthogonalLoop=1;jettySize=auto;html=1;exitX=0;exitY=0;exitDx=0;exitDy=0;entryX=1;entryY=0.75;entryDx=0;entryDy=0;fillColor=#dae8fc;strokeColor=#6c8ebf;" edge="1" parent="1" source="RJJfYNmW49-ku6Qb9xGs-9" target="xA2Xlw5TdVz1zvSwqhGt-3">
          <mxGeometry relative="1" as="geometry" />
        </mxCell>
        <mxCell id="RJJfYNmW49-ku6Qb9xGs-9" value="transaction_type" style="ellipse;whiteSpace=wrap;html=1;fillColor=#d5e8d4;strokeColor=#82b366;" vertex="1" parent="1">
          <mxGeometry x="800" y="260" width="120" height="60" as="geometry" />
        </mxCell>
        <mxCell id="RJJfYNmW49-ku6Qb9xGs-11" value="Car_id" style="ellipse;whiteSpace=wrap;html=1;fillColor=#d5e8d4;strokeColor=#82b366;" vertex="1" parent="1">
          <mxGeometry x="380" y="530" width="120" height="60" as="geometry" />
        </mxCell>
        <mxCell id="RJJfYNmW49-ku6Qb9xGs-12" style="edgeStyle=orthogonalEdgeStyle;rounded=0;orthogonalLoop=1;jettySize=auto;html=1;entryX=0.673;entryY=1.057;entryDx=0;entryDy=0;entryPerimeter=0;fillColor=#dae8fc;strokeColor=#6c8ebf;" edge="1" parent="1" source="RJJfYNmW49-ku6Qb9xGs-11" target="xA2Xlw5TdVz1zvSwqhGt-1">
          <mxGeometry relative="1" as="geometry" />
        </mxCell>
        <mxCell id="RJJfYNmW49-ku6Qb9xGs-14" style="edgeStyle=orthogonalEdgeStyle;rounded=0;orthogonalLoop=1;jettySize=auto;html=1;entryX=0.75;entryY=0;entryDx=0;entryDy=0;fillColor=#dae8fc;strokeColor=#6c8ebf;" edge="1" parent="1" source="RJJfYNmW49-ku6Qb9xGs-13" target="xA2Xlw5TdVz1zvSwqhGt-4">
          <mxGeometry relative="1" as="geometry" />
        </mxCell>
        <mxCell id="RJJfYNmW49-ku6Qb9xGs-13" value="manager_id" style="ellipse;whiteSpace=wrap;html=1;fillColor=#d5e8d4;strokeColor=#82b366;" vertex="1" parent="1">
          <mxGeometry x="460" y="-140" width="120" height="60" as="geometry" />
        </mxCell>
      </root>
    </mxGraphModel>
  </diagram>
</mxfile>
